PathFileType	4	(X/Y/Z)	C:/Users/dbak576/Desktop/Duncan Bakke Modelling Files/H20s1/Static_H20s1.trc	
DataRate	CameraRate	NumFrames	NumMarkers	Units	OrigDataRate	OrigDataStartFrame	OrigNumFrames	
200.00	200.00	5	61	mm	200.00	381	672	
Frame#	Time	LFHD			RFHD			LBHD			RBHD			C7			T10			CLAV			STRN			RBack			LASI			RASI			LPSI			RPSI			RACR1			RUA1			RElbow			RElbowM			RFA1			RWRR			RWRU			RCAR			LACR1			LUA1			LElbow			LElbowM			LFA1			LWRR			LWRU			LCAR			RTH1			RTH3			RTH2			RTH4			RLFC			RMFC			RTB1			RTB3			RTB2			RTB4			RLMAL			RMMAL			RCAL			RMT1			RMT5			RToe			LTH1			LTH3			LTH2			LTH4			LLFC			LMFC			LTB1			LTB3			LTB2			LTB4			LLMAL			LMMAL			LCAL			LMT1			LMT5			LToe			
		X1	Y1	Z1	X2	Y2	Z2	X3	Y3	Z3	X4	Y4	Z4	X5	Y5	Z5	X6	Y6	Z6	X7	Y7	Z7	X8	Y8	Z8	X9	Y9	Z9	X10	Y10	Z10	X11	Y11	Z11	X12	Y12	Z12	X13	Y13	Z13	X14	Y14	Z14	X15	Y15	Z15	X16	Y16	Z16	X17	Y17	Z17	X18	Y18	Z18	X19	Y19	Z19	X20	Y20	Z20	X21	Y21	Z21	X22	Y22	Z22	X23	Y23	Z23	X24	Y24	Z24	X25	Y25	Z25	X26	Y26	Z26	X27	Y27	Z27	X28	Y28	Z28	X29	Y29	Z29	X30	Y30	Z30	X31	Y31	Z31	X32	Y32	Z32	X33	Y33	Z33	X34	Y34	Z34	X35	Y35	Z35	X36	Y36	Z36	X37	Y37	Z37	X38	Y38	Z38	X39	Y39	Z39	X40	Y40	Z40	X41	Y41	Z41	X42	Y42	Z42	X43	Y43	Z43	X44	Y44	Z44	X45	Y45	Z45	X46	Y46	Z46	X47	Y47	Z47	X48	Y48	Z48	X49	Y49	Z49	X50	Y50	Z50	X51	Y51	Z51	X52	Y52	Z52	X53	Y53	Z53	X54	Y54	Z54	X55	Y55	Z55	X56	Y56	Z56	X57	Y57	Z57	X58	Y58	Z58	X59	Y59	Z59	X60	Y60	Z60	X61	Y61	Z61	

1	0.000	-27.23754	-333.23465	1650.18799	53.68627	-337.31827	1655.51990	-60.82474	-508.80090	1600.94653	77.65976	-516.55743	1600.33386	7.69324	-524.40344	1455.67798	-9.92624	-554.52924	1135.45691	0.17462	-372.08322	1401.24207	-4.93633	-334.40387	1237.53931	89.69661	-586.14978	1355.09973	-158.77838	-355.45908	966.09906	145.75121	-364.41797	959.71362	-69.78642	-533.47461	977.59528	33.85054	-543.63220	977.00269	119.31648	-489.31552	1459.21423	289.85297	-476.17493	1415.64905	411.84915	-444.67746	1393.76563	395.04544	-377.96094	1337.55225	539.35706	-396.67517	1441.78027	647.13184	-303.58459	1498.15076	657.89478	-324.63879	1424.40942	712.82214	-311.31512	1468.60388	-133.72809	-495.40137	1464.97424	-313.26840	-477.40070	1415.26001	-427.79626	-442.16183	1389.65942	-396.89069	-403.52216	1330.50378	-556.56958	-389.54919	1465.02002	-641.29340	-307.03436	1506.16309	-659.97803	-313.10159	1429.09204	-712.40149	-317.29391	1491.01343	202.70366	-439.08578	764.91278	200.22150	-442.26443	575.41730	184.93135	-370.74658	671.37823	204.87238	-440.40173	668.28101	196.37727	-447.49765	471.65128	65.33643	-462.42346	439.04523	132.38829	-411.89120	368.94669	155.45598	-440.42996	182.16812	215.56355	-445.81079	287.14630	145.92000	-423.53366	278.22784	199.52991	-512.79156	88.55960	116.08280	-476.36685	92.39863	159.69431	-558.95264	35.12936	140.66293	-352.02686	38.63255	227.04411	-389.37289	33.56379	167.34294	-295.43411	26.02056	-210.74196	-406.26498	769.58234	-207.64973	-427.29919	583.02081	-175.23634	-350.42465	664.64844	-214.49104	-417.60852	672.30042	-204.20218	-450.59811	469.02054	-79.12271	-472.01709	435.35590	-160.39935	-418.94949	370.64886	-170.65610	-462.66931	190.00148	-228.51927	-475.18964	291.97327	-165.26952	-442.06326	280.45862	-204.56158	-547.21973	80.03783	-120.11313	-509.37689	85.88987	-160.14012	-593.81262	33.09528	-143.53421	-379.48386	35.88959	-233.20778	-413.23309	31.98367	-160.27180	-332.87341	26.81170 
2	0.005	-27.24831	-333.19144	1650.15747	53.74471	-337.30206	1655.52075	-60.81118	-508.79016	1600.94250	77.67352	-516.51837	1600.31396	7.67437	-524.37170	1455.68994	-9.91861	-554.53644	1135.42163	0.17373	-372.05978	1401.21057	-4.94624	-334.37494	1237.54163	89.71791	-586.11737	1355.09180	-158.75688	-355.41302	966.06409	145.62595	-364.47522	959.64905	-69.79726	-533.45374	977.59869	33.83776	-543.60950	977.00208	119.32907	-489.27707	1459.22388	289.85400	-476.13028	1415.67493	411.89856	-444.86777	1393.66785	395.03900	-377.96274	1337.50232	539.33594	-396.66620	1441.79578	647.12207	-303.57117	1498.13550	657.89142	-324.63742	1424.40076	712.86505	-311.29108	1468.63672	-133.71803	-495.36838	1464.98169	-313.25894	-477.33459	1415.26135	-427.79611	-442.09872	1389.68091	-396.81097	-403.38754	1330.45471	-556.60120	-389.45444	1465.03064	-641.24628	-306.93924	1506.17822	-660.00238	-313.13229	1429.11963	-712.34814	-317.12885	1490.96887	202.71332	-439.08759	764.92365	200.23999	-442.24606	575.40326	184.91400	-370.72934	671.37854	204.86272	-440.40393	668.28455	196.38443	-447.44662	471.63397	65.44469	-462.31546	439.05814	132.37294	-411.88058	368.94373	155.44945	-440.46576	182.16151	215.63078	-445.79160	287.14026	145.94241	-423.57629	278.24399	199.53960	-512.79578	88.54972	115.87987	-476.42114	92.36204	159.69354	-558.95026	35.13387	140.67386	-352.01294	38.62095	227.08504	-389.33945	33.55449	167.33655	-295.40118	26.06149	-210.73592	-406.26758	769.62341	-207.64751	-427.24545	583.01086	-175.24275	-350.42319	664.64185	-214.51543	-417.60211	672.28052	-204.19002	-450.59360	469.00119	-79.13254	-471.99426	435.35638	-160.39626	-418.95267	370.63867	-170.68845	-462.64383	190.01280	-228.51004	-475.19745	291.97748	-165.27573	-442.05893	280.42972	-204.52048	-547.21667	80.03689	-120.12400	-509.39227	85.87236	-160.14481	-593.81390	33.07308	-143.57114	-379.50082	35.94444	-233.07896	-413.20447	32.03621	-160.24632	-332.86304	26.80837 
3	0.010	-27.24329	-333.12451	1650.12854	53.78374	-337.28003	1655.52502	-60.82097	-508.77881	1600.94934	77.69221	-516.48407	1600.32178	7.68729	-524.32574	1455.68359	-9.79622	-554.45142	1135.35278	0.18561	-372.02649	1401.22217	-4.96094	-334.35477	1237.52844	89.71897	-586.08472	1355.08582	-158.71733	-355.38766	966.03400	145.81906	-364.38147	959.75043	-69.81966	-533.44818	977.60052	33.85537	-543.40515	977.03137	119.30874	-489.25095	1459.22021	289.86337	-476.08182	1415.67517	412.11072	-444.95370	1393.44580	395.04425	-377.95947	1337.47046	539.32172	-396.66681	1441.78796	647.12579	-303.57007	1498.11584	657.90051	-324.64105	1424.37488	712.89368	-311.30588	1468.65967	-133.72421	-495.34949	1464.96497	-313.24017	-477.23428	1415.26257	-427.83490	-442.05212	1389.68994	-396.73944	-403.29303	1330.42737	-556.58972	-389.38629	1465.01331	-641.24170	-306.82806	1506.11108	-659.89355	-312.84937	1428.96008	-712.31458	-316.98734	1490.92310	202.74081	-439.08801	764.93341	200.23022	-442.24170	575.40405	184.88873	-370.69009	671.38214	204.84383	-440.36813	668.24908	196.38370	-447.42767	471.64270	65.58924	-462.08182	439.04190	132.37451	-411.85104	368.92807	155.44339	-440.49170	182.15192	215.52693	-445.82007	287.14261	146.04906	-423.79111	278.15323	199.52231	-512.80554	88.56950	115.88406	-476.40857	92.30366	159.70380	-558.93671	35.12102	140.68237	-352.02570	38.63027	227.08211	-389.34778	33.57996	167.33972	-295.41077	26.05566	-210.72214	-406.26544	769.60254	-207.65613	-427.22522	583.01532	-175.23640	-350.42282	664.64014	-214.56912	-417.57727	672.27625	-204.18225	-450.59271	469.01505	-79.12289	-471.97540	435.36295	-160.39293	-418.95438	370.63599	-170.72072	-462.66568	190.02032	-228.51266	-475.20102	291.97055	-165.21992	-442.10352	280.46390	-204.53610	-547.21967	80.05181	-120.11723	-509.38089	85.83822	-160.16441	-593.81860	33.05834	-143.56798	-379.48267	35.92913	-233.09171	-413.19901	32.01991	-160.24455	-332.88300	26.80670 
4	0.015	-27.24056	-333.08481	1650.12085	53.82184	-337.20740	1655.52783	-60.81158	-508.73969	1600.94336	77.69328	-516.46295	1600.34155	7.72279	-524.25214	1455.66492	-9.93508	-554.47150	1135.44397	0.19469	-371.98215	1401.23828	-4.96481	-334.34933	1237.49023	89.73287	-586.06653	1355.08472	-158.73882	-355.38617	966.06506	145.77686	-364.35141	959.72449	-69.82581	-533.39014	977.60931	33.87601	-543.40973	977.01569	119.30930	-489.24002	1459.22375	289.87289	-476.06454	1415.66943	412.02429	-444.74997	1393.67224	395.04684	-377.95557	1337.48474	539.31750	-396.66931	1441.77954	647.11743	-303.56964	1498.09534	657.92004	-324.63654	1424.39307	712.91217	-311.30032	1468.66650	-133.75394	-495.29053	1464.96545	-313.19241	-477.15536	1415.23718	-427.80725	-441.97574	1389.66931	-396.61310	-403.19995	1330.40222	-556.61096	-389.34317	1465.02942	-641.22412	-306.77887	1506.07434	-659.79132	-312.49890	1428.85681	-712.24622	-316.87390	1490.87634	202.76659	-439.08948	764.94159	200.23854	-442.23877	575.41119	184.87144	-370.66159	671.38989	204.73871	-440.30420	667.87531	196.55933	-446.81961	471.81165	65.47138	-462.10071	438.99176	132.36801	-411.81525	368.93396	155.43474	-440.46161	182.15115	215.61700	-445.80496	287.16376	146.13469	-423.90738	278.04654	199.50926	-512.80255	88.56763	115.94849	-476.38492	92.26218	159.72609	-558.93756	35.14019	140.68817	-352.01877	38.63348	227.06276	-389.37009	33.59306	167.33438	-295.39676	26.06731	-210.75743	-406.25403	769.60345	-207.66794	-427.23181	583.03784	-175.26250	-350.41873	664.60541	-214.47783	-417.60199	672.29297	-204.20447	-450.60080	469.05127	-79.14145	-471.95328	435.34778	-160.39198	-418.95444	370.63724	-170.69621	-462.65662	190.03252	-228.49312	-475.20557	291.96201	-165.19682	-442.13416	280.46188	-204.53481	-547.21820	80.03076	-120.15034	-509.38586	85.86316	-160.16942	-593.81873	33.04656	-143.58206	-379.48123	35.93878	-233.04706	-413.18365	32.04998	-160.26855	-332.89175	26.79346 
5	0.020	-27.24382	-333.04706	1650.10754	53.81262	-337.14142	1655.53040	-60.81991	-508.72302	1600.92920	77.69312	-516.41339	1600.36255	7.73056	-524.22552	1455.64233	-9.90308	-554.43506	1135.38342	0.16691	-371.95999	1401.21790	-4.95747	-334.35883	1237.46436	89.74322	-586.06396	1355.08582	-158.73862	-355.37457	966.04144	145.92195	-364.26328	959.78235	-69.82146	-533.36151	977.60571	33.87037	-543.34473	977.02533	119.31464	-489.24036	1459.22668	289.86746	-476.07224	1415.67834	411.88992	-444.60718	1393.81592	395.04187	-377.95190	1337.50464	539.31940	-396.67123	1441.77771	647.12579	-303.56882	1498.09949	657.92053	-324.63898	1424.36829	712.91345	-311.28842	1468.64294	-133.76599	-495.25876	1464.97229	-313.14706	-477.05450	1415.23120	-427.77023	-441.88153	1389.63123	-396.56454	-403.08704	1330.34863	-556.64709	-389.23270	1465.02954	-641.19519	-306.69122	1506.07324	-659.72748	-312.24323	1428.82996	-712.16791	-316.70676	1490.83643	202.77518	-439.05896	764.94135	200.25452	-442.23929	575.41962	184.88480	-370.65530	671.40039	204.65523	-440.23611	667.83923	196.65118	-446.27698	471.91647	65.37332	-462.23996	439.01013	132.35739	-411.81903	368.94012	155.44235	-440.42694	182.13309	215.76228	-445.74530	287.16568	146.07318	-423.76489	278.09894	199.51523	-512.80249	88.57738	116.01250	-476.36603	92.23151	159.74480	-558.95282	35.14264	140.66986	-352.02988	38.62500	227.06085	-389.35403	33.55371	167.33214	-295.38455	26.08245	-210.75197	-406.26404	769.65338	-207.68060	-427.23294	583.03149	-175.27658	-350.41650	664.59180	-214.44357	-417.59662	672.24426	-204.22913	-450.58981	469.02997	-79.14846	-471.92590	435.33057	-160.39302	-418.95352	370.63910	-170.67377	-462.64511	190.04274	-228.51645	-475.19916	291.93860	-165.20416	-442.13791	280.45346	-204.41673	-547.20953	80.04090	-120.16767	-509.40607	85.90716	-160.16934	-593.81830	33.05527	-143.58713	-379.47897	35.92542	-233.01076	-413.16592	32.04123	-160.27528	-332.89551	26.79979 
